<svg width="400" height="400" viewBox="0 0 400 400" xmlns="http://www.w3.org/2000/svg">
  <defs>
    <clipPath id="cc">
      <circle cx="200" cy="200" r="185"/>
    </clipPath>
  </defs>

  <!-- Background -->
  <circle cx="200" cy="200" r="185" fill="#3B4FD8"/>

  <!-- Tail feathers -->
  <ellipse cx="200" cy="308" rx="54" ry="16" fill="#2D3DB8"/>
  <path d="M155 300 Q144 320 158 334 Q170 342 178 324Z" fill="#3242C0"/>
  <path d="M245 300 Q256 320 242 334 Q230 342 222 324Z" fill="#3242C0"/>
  <path d="M176 304 Q170 322 180 332 Q190 338 194 320Z" fill="#3848C8"/>
  <path d="M224 304 Q230 322 220 332 Q210 338 206 320Z" fill="#3848C8"/>

  <!-- Left wing -->
  <path d="M128 210 Q88 195 78 240 Q74 278 112 294 Q148 306 168 278 Q150 252 136 218Z" fill="#2D3DB8"/>
  <path d="M92 248 Q88 266 106 278 Q122 286 142 276" fill="none" stroke="#4858CC" stroke-width="2.5" stroke-linecap="round"/>
  <path d="M96 262 Q94 274 108 280" fill="none" stroke="#4858CC" stroke-width="1.5" stroke-linecap="round"/>

  <!-- Right wing -->
  <path d="M272 210 Q312 195 322 240 Q326 278 288 294 Q252 306 232 278 Q250 252 264 218Z" fill="#2D3DB8"/>
  <path d="M308 248 Q312 266 294 278 Q278 286 258 276" fill="none" stroke="#4858CC" stroke-width="2.5" stroke-linecap="round"/>
  <path d="M304 262 Q306 274 292 280" fill="none" stroke="#4858CC" stroke-width="1.5" stroke-linecap="round"/>

  <!-- Body -->
  <ellipse cx="200" cy="248" rx="72" ry="80" fill="#EDEAE2"/>

  <!-- Belly -->
  <ellipse cx="200" cy="265" rx="44" ry="54" fill="#E2DCF0" opacity="0.5"/>

  <!-- Neck -->
  <ellipse cx="200" cy="180" rx="40" ry="28" fill="#EDEAE2"/>

  <!-- Iridescent collar -->
  <ellipse cx="200" cy="188" rx="40" ry="10" fill="#8890E0" opacity="0.45"/>
  <ellipse cx="200" cy="185" rx="36" ry="7" fill="#A0A8F0" opacity="0.25"/>

  <!-- Cheek puffs -->
  <ellipse cx="162" cy="162" rx="28" ry="24" fill="#EDEAE2"/>
  <ellipse cx="238" cy="162" rx="28" ry="24" fill="#EDEAE2"/>

  <!-- Head -->
  <circle cx="200" cy="145" r="58" fill="#E2DED6"/>

  <!-- Head tuft -->
  <path d="M196 90 Q197 74 200 67 Q203 74 204 90" fill="#D2CEC6" stroke="#C2BEB6" stroke-width="0.5"/>
  <path d="M188 94 Q187 78 191 71 Q195 79 194 95" fill="#D8D4CC" stroke="#C2BEB6" stroke-width="0.5"/>
  <path d="M212 94 Q213 78 209 71 Q205 79 206 95" fill="#D8D4CC" stroke="#C2BEB6" stroke-width="0.5"/>

  <!-- Left eye -->
  <circle cx="175" cy="138" r="16" fill="#FFF8F2"/>
  <circle cx="175" cy="138" r="11" fill="#6B4228"/>
  <circle cx="175" cy="138" r="6.5" fill="#1C1C2E"/>
  <circle cx="178" cy="135" r="2.5" fill="white"/>

  <!-- Right eye -->
  <circle cx="225" cy="138" r="16" fill="#FFF8F2"/>
  <circle cx="225" cy="138" r="11" fill="#6B4228"/>
  <circle cx="225" cy="138" r="6.5" fill="#1C1C2E"/>
  <circle cx="228" cy="135" r="2.5" fill="white"/>

  <!-- Brows -->
  <path d="M163 124 Q175 120 187 124" fill="none" stroke="#B8B4AC" stroke-width="2" stroke-linecap="round"/>
  <path d="M213 124 Q225 120 237 124" fill="none" stroke="#B8B4AC" stroke-width="2" stroke-linecap="round"/>

  <!-- Beak -->
  <path d="M192 158 Q200 150 208 158 Q206 168 200 172 Q194 168 192 158Z" fill="#D08038"/>
  <path d="M200 152 L200 170" fill="none" stroke="#B86C28" stroke-width="1" stroke-linecap="round" opacity="0.5"/>
  <ellipse cx="196" cy="157" rx="3" ry="2" fill="#B87030" opacity="0.4"/>
  <ellipse cx="204" cy="157" rx="3" ry="2" fill="#B87030" opacity="0.4"/>

  <!-- Envelope -->
  <g transform="translate(200 296) rotate(-3)">
    <rect x="-30" y="-18" width="60" height="38" rx="4" fill="#FFF8E8" stroke="#C8943A" stroke-width="1.5"/>
    <path d="M-30 -18 L0 5 L30 -18" fill="none" stroke="#C8943A" stroke-width="1.5" stroke-linecap="round" stroke-linejoin="round"/>
    <path d="M-30 20 L-8 4" fill="none" stroke="#C8943A" stroke-width="1" opacity="0.4"/>
    <path d="M30 20 L8 4" fill="none" stroke="#C8943A" stroke-width="1" opacity="0.4"/>
    <circle cx="0" cy="5" r="3.5" fill="#D07030" opacity="0.85"/>
  </g>

  <!-- Feet -->
  <path d="M183 322 L180 344 M180 344 L168 354 M180 344 L181 356 M180 344 L192 352" fill="none" stroke="#C87830" stroke-width="2.5" stroke-linecap="round" stroke-linejoin="round"/>
  <path d="M217 322 L220 344 M220 344 L208 354 M220 344 L221 356 M220 344 L232 352" fill="none" stroke="#C87830" stroke-width="2.5" stroke-linecap="round" stroke-linejoin="round"/>

  <!-- Border -->
  <circle cx="200" cy="200" r="185" fill="none" stroke="#1E2BA0" stroke-width="6" opacity="0.45"/>
</svg>